<svg width="90" height="28" viewBox="0 0 90 28" fill="none" xmlns="http://www.w3.org/2000/svg">
<g clip-path="url(#clip0_3421_901)">
<path fill-rule="evenodd" clip-rule="evenodd" d="M0.349609 14.1145L22.3534 27.6499C22.8407 24.3765 19.7734 22.4446 19.7447 22.1613C19.7113 21.7991 22.1867 20.896 22.3692 18.4175C22.6777 14.2805 16.9516 14.0173 16.7552 17.111C16.6505 18.7284 18.47 18.7651 18.5265 17.5639C18.6052 15.9556 20.2894 16.2591 20.5507 18.0691C20.8147 19.8819 18.6803 20.6493 17.8271 20.6255C16.4986 20.5851 14.731 19.5142 14.5708 17.9316C14.3493 15.7521 16.8377 15.4706 13.6277 15.7393C12.3669 15.8438 11.4469 15.1772 10.8615 14.1044C11.5887 13.1068 12.3669 12.4136 13.6277 12.52C16.8377 12.7905 14.3493 12.5062 14.5708 10.3057C14.731 8.70931 16.4986 7.62644 17.8271 7.58702C18.6803 7.56134 20.8147 8.33613 20.5507 10.1672C20.2894 11.9928 18.6052 12.299 18.5265 10.677C18.47 9.46301 16.6505 9.50152 16.7552 11.1345C16.9516 14.2557 22.6777 13.9916 22.3692 9.81511C22.1895 7.36329 19.8049 6.43721 19.7456 6.0567C19.7151 5.85589 22.8305 3.73508 22.3534 0.495644" fill="#B9966E"/>
<path d="M44.4393 19.6292V12.421C44.4393 10.3697 43.059 9.08523 40.8544 9.08523C39.3207 9.08523 38.0746 9.64118 37.4228 10.1971C36.8477 9.60284 35.7549 9.08523 34.1254 9.08523C32.7259 9.08523 31.4223 9.39196 30.4062 9.81372V19.6292H32.4959V11.079C32.9368 10.8873 33.5503 10.7723 34.2596 10.7723C35.544 10.7723 36.3684 11.4049 36.3684 12.4401V19.6292H38.4772V11.4624C38.8989 11.0215 39.5699 10.7723 40.3751 10.7723C41.5637 10.7723 42.3497 11.4432 42.3497 12.6318V19.6292H44.4393Z" fill="#282D3E"/>
<path d="M54.6998 19.1116V12.5935C54.6998 10.0438 53.2044 9.08523 50.7314 9.08523C49.3511 9.08523 47.9516 9.44948 47.1273 9.81372L47.6641 11.2515C48.3542 10.9256 49.5428 10.6189 50.5205 10.6189C51.8433 10.6189 52.706 11.079 52.706 12.3826V13.0344C49.5811 13.207 46.5138 13.7246 46.5138 16.6002C46.5138 18.6323 48.0091 19.8401 50.9806 19.8401C52.4376 19.8401 53.9521 19.5142 54.6998 19.1116ZM52.706 18.0572C52.3801 18.2106 51.5941 18.3256 50.9231 18.3256C49.3319 18.3256 48.4884 17.6546 48.4884 16.5619C48.4884 14.7215 50.5972 14.5489 52.706 14.4339V18.0572Z" fill="#282D3E"/>
<path d="M62.4478 9.16191C62.1411 9.1044 61.7385 9.08523 61.2784 9.08523C59.7447 9.08523 58.2685 9.39196 57.2717 9.81372V19.6292H59.3613V11.0598C59.7639 10.8873 60.3965 10.7914 60.9908 10.7914C61.3742 10.7914 61.7385 10.8298 62.0452 10.9065L62.4478 9.16191Z" fill="#282D3E"/>
<path d="M73.0355 19.6292L68.607 14.1655L72.7863 9.29611H70.3516L66.3832 13.9355H66.3449V4.58008H64.2744V19.6292H66.3449V14.3764H66.3832L70.62 19.6292H73.0355Z" fill="#282D3E"/>
<path d="M82.6525 13.6287C82.6525 10.8489 81.0613 9.08523 78.3774 9.08523C75.4826 9.08523 73.7189 11.2899 73.7189 14.4531C73.7189 17.7505 75.5401 19.8401 78.7992 19.8401C80.2178 19.8401 81.5981 19.5333 82.4033 19.1116L81.7898 17.5396C81.0805 17.923 79.9686 18.1722 78.9334 18.1722C77.1888 18.1722 75.9811 17.2328 75.7702 15.3733L82.6334 14.4147C82.6525 14.1463 82.6525 13.8779 82.6525 13.6287ZM80.6396 13.3028L75.636 13.993C75.6743 11.8458 76.7287 10.6189 78.3391 10.6189C79.7194 10.6189 80.6204 11.5008 80.6396 13.3028Z" fill="#282D3E"/>
<path d="M89.5489 19.5333V17.7888C89.3764 17.8655 89.0888 17.923 88.8396 17.923C88.0728 17.923 87.4593 17.5587 87.4593 16.6194V10.8681H89.5489V9.29611H87.4593V6.26711L85.408 6.89975V9.29611H84.0086V10.8681H85.408V16.7344C85.408 18.7473 86.4241 19.7634 88.2453 19.7634C88.7821 19.7634 89.2997 19.6484 89.5489 19.5333Z" fill="#282D3E"/>
</g>
<defs>
<clipPath id="clip0_3421_901">
<rect width="90" height="28" fill="white"/>
</clipPath>
</defs>
</svg>
