<svg width="29" height="36" viewBox="0 0 29 36" fill="none" xmlns="http://www.w3.org/2000/svg">
<path fill-rule="evenodd" clip-rule="evenodd" d="M0 18.1471L28.2906 35.5498C28.9171 31.3412 24.9735 28.8573 24.9365 28.493C24.8937 28.0274 28.0762 26.8662 28.3109 23.6796C28.7075 18.3605 21.3454 18.0222 21.0929 21.9997C20.9583 24.0793 23.2976 24.1264 23.3703 22.5821C23.4715 20.5143 25.6369 20.9045 25.9728 23.2317C26.3122 25.5623 23.568 26.549 22.471 26.5184C20.763 26.4665 18.4904 25.0896 18.2843 23.0548C17.9997 20.2526 21.1989 19.8907 17.0718 20.2361C15.4507 20.3705 14.268 19.5135 13.5152 18.1342C14.4502 16.8515 15.4507 15.9603 17.0718 16.0971C21.1989 16.4448 17.9997 16.0794 18.2843 13.2501C18.4904 11.1976 20.763 9.80536 22.471 9.75467C23.568 9.72166 26.3122 10.7178 25.9728 13.072C25.6369 15.4192 23.4715 15.8129 23.3703 13.7275C23.2976 12.1667 20.9583 12.2162 21.0929 14.3158C21.3454 18.3287 28.7075 17.9892 28.3109 12.6194C28.0798 9.46702 25.014 8.27635 24.9377 7.78712C24.8984 7.52894 28.904 4.80218 28.2906 0.637191" fill="#B9966E"/>
</svg>
