<svg width="18" height="22" viewBox="0 0 18 22" fill="none" xmlns="http://www.w3.org/2000/svg">
<path d="M16 21.8789H2C1.45 21.8789 0.979 21.6832 0.587 21.2919C0.195667 20.8999 0 20.4289 0 19.8789V7.87891C0 7.32891 0.195667 6.85824 0.587 6.46691C0.979 6.07491 1.45 5.87891 2 5.87891H4C4 4.49557 4.48767 3.31624 5.463 2.34091C6.43767 1.36624 7.61667 0.878906 9 0.878906C10.3833 0.878906 11.5627 1.36624 12.538 2.34091C13.5127 3.31624 14 4.49557 14 5.87891H16C16.55 5.87891 17.021 6.07491 17.413 6.46691C17.8043 6.85824 18 7.32891 18 7.87891V19.8789C18 20.4289 17.8043 20.8999 17.413 21.2919C17.021 21.6832 16.55 21.8789 16 21.8789ZM6 5.87891H12C12 5.04557 11.7083 4.33724 11.125 3.75391C10.5417 3.17057 9.83333 2.87891 9 2.87891C8.16667 2.87891 7.45833 3.17057 6.875 3.75391C6.29167 4.33724 6 5.04557 6 5.87891ZM9 13.8789C10.2333 13.8789 11.35 13.4706 12.35 12.6539C13.35 11.8372 13.8417 10.9206 13.825 9.90391C13.825 9.62057 13.7333 9.37891 13.55 9.17891C13.3667 8.97891 13.1333 8.87891 12.85 8.87891C12.6167 8.87891 12.4083 8.95391 12.225 9.10391C12.0417 9.25391 11.9083 9.47891 11.825 9.77891C11.6417 10.4122 11.2833 10.9206 10.75 11.3039C10.2167 11.6872 9.63333 11.8789 9 11.8789C8.36667 11.8789 7.77933 11.6872 7.238 11.3039C6.696 10.9206 6.34167 10.4122 6.175 9.77891C6.09167 9.46224 5.96667 9.23291 5.8 9.09091C5.63333 8.94957 5.43333 8.87891 5.2 8.87891C4.91667 8.87891 4.67933 8.97891 4.488 9.17891C4.296 9.37891 4.2 9.62057 4.2 9.90391C4.2 10.9206 4.69167 11.8372 5.675 12.6539C6.65833 13.4706 7.76667 13.8789 9 13.8789Z" fill="#B5B9C5"/>
</svg>
