<svg width="20" height="19" viewBox="0 0 20 19" fill="none" xmlns="http://www.w3.org/2000/svg">
<path d="M8.65 17.7999L6.925 16.2249C5.15833 14.6082 3.56267 13.0039 2.138 11.4119C0.712667 9.82057 0 8.06657 0 6.1499C0 4.58324 0.525 3.2749 1.575 2.2249C2.625 1.1749 3.93333 0.649902 5.5 0.649902C6.38333 0.649902 7.21667 0.837235 8 1.2119C8.78333 1.58724 9.45 2.0999 10 2.7499C10.55 2.0999 11.2167 1.58724 12 1.2119C12.7833 0.837235 13.6167 0.649902 14.5 0.649902C16.0667 0.649902 17.375 1.1749 18.425 2.2249C19.475 3.2749 20 4.58324 20 6.1499C20 8.06657 19.2917 9.8249 17.875 11.4249C16.4583 13.0249 14.85 14.6332 13.05 16.2499L11.35 17.7999C10.9667 18.1499 10.5167 18.3249 10 18.3249C9.48333 18.3249 9.03333 18.1499 8.65 17.7999Z" fill="#B5B9C5"/>
</svg>
