<svg width="20" height="18" viewBox="0 0 20 18" fill="none" xmlns="http://www.w3.org/2000/svg">
<path d="M8.65 17.15L6.925 15.575C5.15833 13.9583 3.56267 12.354 2.138 10.762C0.712667 9.17064 0 7.41664 0 5.49997C0 3.9333 0.525 2.62497 1.575 1.57497C2.625 0.524969 3.93333 -3.05176e-05 5.5 -3.05176e-05C6.38333 -3.05176e-05 7.21667 0.187303 8 0.561969C8.78333 0.937303 9.45 1.44997 10 2.09997C10.55 1.44997 11.2167 0.937303 12 0.561969C12.7833 0.187303 13.6167 -3.05176e-05 14.5 -3.05176e-05C16.0667 -3.05176e-05 17.375 0.524969 18.425 1.57497C19.475 2.62497 20 3.9333 20 5.49997C20 7.41664 19.2917 9.17497 17.875 10.775C16.4583 12.375 14.85 13.9833 13.05 15.6L11.35 17.15C10.9667 17.5 10.5167 17.675 10 17.675C9.48333 17.675 9.03333 17.5 8.65 17.15Z" fill="#DC4A47"/>
</svg>
