<svg width="20" height="20" viewBox="0 0 20 20" fill="none" xmlns="http://www.w3.org/2000/svg">
<path fill-rule="evenodd" clip-rule="evenodd" d="M10 20C15.5228 20 20 15.5228 20 10C20 4.47715 15.5228 0 10 0C4.47715 0 0 4.47715 0 10C0 15.5228 4.47715 20 10 20ZM9.99867 3.89915C11.8259 3.89915 13.3066 5.38025 13.3066 7.20659C13.3066 9.03337 11.8259 10.514 9.99867 10.514C8.17233 10.514 6.69167 9.03337 6.69167 7.20659C6.69167 5.38025 8.17233 3.89915 9.99867 3.89915ZM9.99648 18.2933C8.17409 18.2933 6.50499 17.6297 5.21759 16.5311C4.90398 16.2636 4.72301 15.8714 4.72301 15.4598C4.72301 13.6076 6.22212 12.1252 8.07482 12.1252H11.9234C13.7765 12.1252 15.2699 13.6076 15.2699 15.4598C15.2699 15.8718 15.0899 16.2632 14.7758 16.5307C13.4888 17.6297 11.8193 18.2933 9.99648 18.2933Z" fill="#B5B9C5"/>
</svg>
