<svg width="24" height="24" viewBox="0 0 24 24" fill="none" xmlns="http://www.w3.org/2000/svg">
<path fill-rule="evenodd" clip-rule="evenodd" d="M18.2887 4.01055C18.0951 3.97904 17.83 3.99647 17.4947 4.33169L14.3128 7.51367C14.0318 7.79461 13.6112 7.88259 13.2412 7.73781L5.71857 4.79415L4.55816 5.95456L10.2812 9.87035C10.5268 10.0383 10.6847 10.3069 10.7123 10.6031C10.7398 10.8993 10.634 11.1924 10.4237 11.4028L7.94879 13.8776C7.76126 14.0652 7.5069 14.1705 7.24169 14.1705H5.53458L4.92462 14.7805L7.15125 15.3877C7.49286 15.4809 7.75973 15.7478 7.8529 16.0894L8.46016 18.316L9.07011 17.7061V15.999C9.07011 15.7337 9.17547 15.4794 9.36301 15.2918L11.8379 12.817C12.0482 12.6066 12.3413 12.5008 12.6375 12.5284C12.9337 12.5559 13.2023 12.7139 13.3703 12.9594L17.2861 18.6825L18.4465 17.5221L15.5028 9.99939C15.3581 9.62941 15.446 9.20882 15.727 8.92789L18.9089 5.74591C19.2801 5.37475 19.2908 5.11821 19.2706 4.97194C19.2423 4.76642 19.1086 4.53137 18.9089 4.33169C18.7864 4.20914 18.5443 4.05216 18.2887 4.01055ZM18.61 2.03654C19.3679 2.15992 19.9743 2.56862 20.3232 2.91748C20.7127 3.30705 21.1447 3.92054 21.2519 4.69907C21.3673 5.53686 21.0834 6.39991 20.3232 7.16012L17.6036 9.87964L20.5473 17.4023C20.6921 17.7723 20.6041 18.1929 20.3232 18.4738L17.8483 20.9487C17.6379 21.1591 17.3448 21.2648 17.0486 21.2373C16.7524 21.2098 16.4839 21.0518 16.3159 20.8063L12.4001 15.0832L11.0701 16.4132V18.1203C11.0701 18.3855 10.9648 18.6398 10.7772 18.8274L8.6559 20.9487C8.40384 21.2008 8.03665 21.2996 7.69213 21.2081C7.3476 21.1166 7.07782 20.8486 6.98403 20.5047L6.07372 17.1669L2.73593 16.2566C2.39202 16.1628 2.12404 15.893 2.03255 15.5485C1.94105 15.204 2.03988 14.8368 2.29194 14.5847L4.41326 12.4634C4.6008 12.2759 4.85515 12.1705 5.12037 12.1705H6.82747L8.15744 10.8406L2.43436 6.92477C2.18885 6.75678 2.03087 6.48821 2.00334 6.192C1.97581 5.89579 2.08159 5.60271 2.29194 5.39235L4.76681 2.91748C5.04774 2.63655 5.46834 2.54857 5.83832 2.69334L13.361 5.637L16.0805 2.91748C16.8767 2.12133 17.7901 1.90306 18.61 2.03654Z" fill="#282D3E"/>
</svg>
