<svg width="24" height="24" viewBox="0 0 24 24" fill="none" xmlns="http://www.w3.org/2000/svg">
<mask id="mask0_3434_1373" style="mask-type:alpha" maskUnits="userSpaceOnUse" x="0" y="0" width="24" height="24">
<rect width="24" height="24" fill="#D9D9D9"/>
</mask>
<g mask="url(#mask0_3434_1373)">
<path d="M18.9 20.3L13.25 14.65L14.65 13.25L20.3 18.9C20.4833 19.0833 20.575 19.3167 20.575 19.6C20.575 19.8833 20.4833 20.1167 20.3 20.3C20.1167 20.4833 19.8833 20.575 19.6 20.575C19.3167 20.575 19.0833 20.4833 18.9 20.3ZM4.525 18.5C4.00833 17.6667 3.625 16.7957 3.375 15.887C3.125 14.979 3 14.05 3 13.1C3 11.8 3.24167 10.5333 3.725 9.30001C4.20833 8.06667 4.95 6.95001 5.95 5.95001C6.95 4.95001 8.07067 4.20401 9.312 3.71201C10.554 3.22067 11.825 2.97501 13.125 2.97501C14.075 2.97501 15.0043 3.10401 15.913 3.36201C16.821 3.62067 17.6833 4.00834 18.5 4.52501C19.0167 4.85834 19.2917 5.33334 19.325 5.95001C19.3583 6.56667 19.1417 7.10834 18.675 7.57501L7.575 18.675C7.10833 19.1417 6.56267 19.3583 5.938 19.325C5.31267 19.2917 4.84167 19.0167 4.525 18.5ZM6.15 17.25L7.5 15.9C7.23333 15.55 6.97933 15.1917 6.738 14.825C6.496 14.4583 6.275 14.0917 6.075 13.725C5.875 13.3583 5.7 12.9917 5.55 12.625C5.4 12.2583 5.26667 11.9 5.15 11.55C4.96667 12.5333 4.95433 13.5167 5.113 14.5C5.271 15.4833 5.61667 16.4 6.15 17.25ZM8.95 14.5L14.5 8.90001C13.7833 8.35001 13.0627 7.90401 12.338 7.56201C11.6127 7.22067 10.9333 6.98767 10.3 6.86301C9.66667 6.73767 9.096 6.71667 8.588 6.80001C8.07933 6.88334 7.68333 7.06667 7.4 7.35001C7.11667 7.65001 6.93333 8.05401 6.85 8.56201C6.76667 9.07067 6.78767 9.64567 6.913 10.287C7.03767 10.929 7.271 11.6083 7.613 12.325C7.95433 13.0417 8.4 13.7667 8.95 14.5ZM17.3 6.15001C16.4167 5.61667 15.4833 5.26667 14.5 5.10001C13.5167 4.93334 12.5333 4.95001 11.55 5.15001C11.9167 5.26667 12.2833 5.40001 12.65 5.55001C13.0167 5.70001 13.3833 5.87067 13.75 6.06201C14.1167 6.25401 14.4793 6.47067 14.838 6.71201C15.196 6.95401 15.55 7.21667 15.9 7.50001L17.3 6.15001Z" fill="#282D3E"/>
</g>
</svg>
